<svg width="541" height="338"
    xmlns="http://www.w3.org/2000/svg"
    xmlns:xlink="http://www.w3.org/1999/xlink" xml:space="preserve" overflow="hidden">
    <g transform="translate(-371 -183)">
        <rect x="372" y="184" width="536" height="336" stroke="#042433" stroke-width="2" stroke-miterlimit="8" fill="aliceblue"/>
        <path d="M372 224 908 224" stroke="#000000" stroke-width="2" stroke-miterlimit="8" fill="none" fill-rule="evenodd"/>
        <g>
            <g>
                <g>
                    <path d="M892.274 198.648C890.505 198.653 888.808 197.95 887.56 196.695L883.544 192.679 885.901 190.321 889.917 194.338C891.218 195.64 893.329 195.64 894.63 194.338L898.647 190.321 901.004 192.679 896.987 196.695C895.74 197.949 894.043 198.652 892.274 198.648Z"/>
                    <path d="M898.648 217.679 894.631 213.662C893.33 212.36 891.219 212.36 889.917 213.662L885.901 217.679 883.544 215.321 887.56 211.305C890.164 208.701 894.385 208.701 896.988 211.305L901.005 215.321Z"/>
                    <path d="M903.324 212.731 899.307 208.714C896.708 206.109 896.708 201.891 899.307 199.286L903.324 195.269 905.681 197.625 901.664 201.642C900.365 202.944 900.365 205.053 901.664 206.356L905.681 210.372Z"/>
                    <path d="M880.681 212.731 878.324 210.375 882.34 206.358C883.64 205.056 883.64 202.947 882.34 201.644L878.324 197.628 880.681 195.27 884.698 199.287C887.297 201.892 887.297 206.11 884.698 208.715Z"/>
                </g>
            </g>
        </g>
        <rect x="508" y="320" width="264" height="56" stroke="#042433" stroke-width="2" stroke-miterlimit="8" fill="lightblue"/>
        <rect x="520" y="328" width="8" height="40" stroke="#000000" stroke-width="2" stroke-miterlimit="8"/>
        <rect x="536" y="328" width="8" height="40" stroke="#000000" stroke-width="2" stroke-miterlimit="8"/>
        <rect x="552" y="328" width="8" height="40" stroke="#000000" stroke-width="2" stroke-miterlimit="8"/>
        <rect x="568" y="328" width="8" height="40" stroke="#000000" stroke-width="2" stroke-miterlimit="8"/>
        <rect x="584" y="328" width="8" height="40" stroke="#000000" stroke-width="2" stroke-miterlimit="8"/>
        <rect x="600" y="328" width="8" height="40" stroke="#000000" stroke-width="2" stroke-miterlimit="8"/>
        <rect x="616" y="328" width="8" height="40" stroke="#000000" stroke-width="2" stroke-miterlimit="8"/>
        <rect x="632" y="328" width="8" height="40" stroke="#000000" stroke-width="2" stroke-miterlimit="8"/>
        <rect x="648" y="328" width="8" height="40" stroke="#000000" stroke-width="2" stroke-miterlimit="8"/>
        <rect x="664" y="328" width="8" height="40" stroke="#000000" stroke-width="2" stroke-miterlimit="8"/>
        <rect x="680" y="328" width="8" height="40" stroke="#000000" stroke-width="2" stroke-miterlimit="8"/>
        <text font-family="Aptos,Aptos_MSFontService,sans-serif" font-weight="400" font-size="19" transform="translate(524.833 397)">Loading awesome content…</text>
    </g>
</svg>